<?xml version="1.0" encoding="UTF-8"?>
<svg id="Layer_1" data-name="Layer 1" xmlns="http://www.w3.org/2000/svg" xmlns:xlink="http://www.w3.org/1999/xlink" viewBox="0 0 318.99 310.7">
  <defs>
    <style>
      .cls-1 {
        clip-path: url(#clippath-34);
      }

      .cls-2 {
        clip-path: url(#clippath-38);
      }

      .cls-3 {
        clip-path: url(#clippath-21);
      }

      .cls-4 {
        clip-path: url(#clippath-6);
      }

      .cls-5 {
        clip-path: url(#clippath-7);
      }

      .cls-6 {
        font-size: 8px;
      }

      .cls-6, .cls-7, .cls-8 {
        font-family: ArialMT, Arial;
      }

      .cls-9 {
        clip-path: url(#clippath-4);
      }

      .cls-10 {
        stroke: #f47d2b;
      }

      .cls-10, .cls-11, .cls-12, .cls-13, .cls-14, .cls-15, .cls-16, .cls-17, .cls-18, .cls-19, .cls-20, .cls-21, .cls-22, .cls-23, .cls-24, .cls-25 {
        fill: none;
      }

      .cls-10, .cls-11, .cls-12, .cls-13, .cls-14, .cls-15, .cls-16, .cls-18, .cls-19, .cls-20, .cls-22, .cls-24, .cls-25 {
        stroke-linejoin: round;
      }

      .cls-10, .cls-11, .cls-12, .cls-13, .cls-16, .cls-20, .cls-22, .cls-25 {
        stroke-width: 1.07px;
      }

      .cls-11 {
        stroke: #272e6a;
      }

      .cls-26 {
        clip-path: url(#clippath-22);
      }

      .cls-12 {
        stroke: #208a42;
      }

      .cls-27 {
        letter-spacing: -.01em;
      }

      .cls-13 {
        stroke: #d51f26;
      }

      .cls-14 {
        stroke-width: 8.54px;
      }

      .cls-14, .cls-15, .cls-24 {
        stroke: #1c86ee;
      }

      .cls-28 {
        letter-spacing: -.02em;
      }

      .cls-29 {
        clip-path: url(#clippath-42);
      }

      .cls-30 {
        fill: #89288f;
      }

      .cls-31 {
        fill: #d51f26;
      }

      .cls-32 {
        fill: #fff;
      }

      .cls-33 {
        letter-spacing: .02em;
      }

      .cls-15 {
        stroke-width: .53px;
      }

      .cls-15, .cls-18, .cls-22 {
        stroke-linecap: round;
      }

      .cls-16 {
        stroke: #8a9fd1;
      }

      .cls-18, .cls-19 {
        stroke-width: .4px;
      }

      .cls-18, .cls-19, .cls-22 {
        stroke: #000;
      }

      .cls-34 {
        letter-spacing: -.12em;
      }

      .cls-20 {
        stroke: #fee500;
      }

      .cls-35 {
        clip-path: url(#clippath-1);
      }

      .cls-36 {
        fill: #f47d2b;
      }

      .cls-21 {
        stroke: #fc4e07;
      }

      .cls-21, .cls-23 {
        stroke-dasharray: 3.04 3.04;
        stroke-miterlimit: 10;
        stroke-width: .5px;
      }

      .cls-37 {
        clip-path: url(#clippath-46);
      }

      .cls-38 {
        clip-path: url(#clippath-5);
      }

      .cls-39 {
        clip-path: url(#clippath-20);
      }

      .cls-23 {
        stroke: #1e96ff;
      }

      .cls-40 {
        clip-path: url(#clippath-3);
      }

      .cls-41 {
        fill: #fee500;
      }

      .cls-42 {
        clip-path: url(#clippath-26);
      }

      .cls-7 {
        fill: #1c86ee;
        font-size: 6px;
      }

      .cls-43 {
        clip-path: url(#clippath-50);
      }

      .cls-8 {
        font-size: 7px;
      }

      .cls-44 {
        clip-path: url(#clippath-30);
      }

      .cls-45 {
        clip-path: url(#clippath-19);
      }

      .cls-46 {
        letter-spacing: -.02em;
      }

      .cls-47 {
        clip-path: url(#clippath-2);
      }

      .cls-48 {
        letter-spacing: -.03em;
      }

      .cls-49 {
        fill: #8a9fd1;
      }

      .cls-50 {
        fill: #272e6a;
      }

      .cls-24 {
        stroke-width: 4.27px;
      }

      .cls-51 {
        fill: #208a42;
      }

      .cls-52 {
        clip-path: url(#clippath);
      }

      .cls-53 {
        fill: #d9d9d9;
      }

      .cls-25 {
        stroke: #89288f;
      }

      .cls-54 {
        letter-spacing: -.01em;
      }
    </style>
    <clipPath id="clippath">
      <rect class="cls-17" x="35.58" y="14.59" width="247.29" height="27.98"/>
    </clipPath>
    <clipPath id="clippath-1">
      <rect class="cls-17" x="35.58" y="42.57" width="247.29" height="27.98"/>
    </clipPath>
    <clipPath id="clippath-2">
      <rect class="cls-17" x="35.58" y="70.55" width="247.29" height="27.98"/>
    </clipPath>
    <clipPath id="clippath-3">
      <rect class="cls-17" x="35.58" y="98.53" width="247.29" height="27.98"/>
    </clipPath>
    <clipPath id="clippath-4">
      <rect class="cls-17" x="35.58" y="126.51" width="247.29" height="27.98"/>
    </clipPath>
    <clipPath id="clippath-5">
      <rect class="cls-17" x="35.58" y="154.49" width="247.29" height="27.98"/>
    </clipPath>
    <clipPath id="clippath-6">
      <rect class="cls-17" x="35.58" y="182.47" width="247.29" height="27.98"/>
    </clipPath>
    <clipPath id="clippath-7">
      <rect class="cls-17" x="35.58" y="232.16" width="247.29" height="78.34"/>
    </clipPath>
    <clipPath id="clippath-19">
      <rect class="cls-17" x="35.58" y="232.16" width="247.29" height="78.34"/>
    </clipPath>
    <clipPath id="clippath-20">
      <rect class="cls-17" x="35.58" y="232.16" width="247.29" height="78.34"/>
    </clipPath>
    <clipPath id="clippath-21">
      <rect class="cls-17" x="35.58" y="232.16" width="247.29" height="78.34"/>
    </clipPath>
    <clipPath id="clippath-22">
      <rect class="cls-17" x="282.87" y="14.59" width="35.59" height="27.98"/>
    </clipPath>
    <clipPath id="clippath-26">
      <rect class="cls-17" x="282.87" y="42.57" width="35.59" height="27.98"/>
    </clipPath>
    <clipPath id="clippath-30">
      <rect class="cls-17" x="282.87" y="70.55" width="35.59" height="27.98"/>
    </clipPath>
    <clipPath id="clippath-34">
      <rect class="cls-17" x="282.87" y="98.53" width="35.59" height="27.98"/>
    </clipPath>
    <clipPath id="clippath-38">
      <rect class="cls-17" x="282.87" y="126.51" width="35.59" height="27.98"/>
    </clipPath>
    <clipPath id="clippath-42">
      <rect class="cls-17" x="282.87" y="154.49" width="35.59" height="27.98"/>
    </clipPath>
    <clipPath id="clippath-46">
      <rect class="cls-17" x="282.87" y="182.47" width="35.59" height="27.98"/>
    </clipPath>
    <clipPath id="clippath-50">
      <rect class="cls-17" x="282.87" y="232.16" width="35.59" height="78.34"/>
    </clipPath>
  </defs>
  <g class="cls-52">
    <polygon class="cls-31" points="36.81 40.54 38.58 41.56 40.34 42.57 42.11 40.54 43.88 40.54 45.64 39.53 47.41 41.56 49.18 41.56 50.94 40.54 52.71 42.57 54.47 41.56 56.24 40.54 58.01 41.56 59.77 39.53 61.54 42.57 63.31 42.57 65.07 41.56 66.84 42.57 72.14 42.57 73.9 41.56 75.67 42.57 77.44 38.51 79.2 38.51 80.97 28.36 82.74 16.18 84.5 38.51 86.27 38.51 88.03 40.54 89.8 40.54 91.57 41.56 93.33 39.53 95.1 42.57 98.63 42.57 100.4 40.54 102.17 42.57 103.93 40.54 105.7 39.53 107.46 40.54 109.23 42.57 114.53 42.57 116.3 41.56 118.06 42.57 121.6 42.57 123.36 40.54 125.13 42.57 130.43 42.57 132.19 41.56 133.96 41.56 135.73 40.54 137.49 41.56 139.26 42.57 141.02 42.57 142.79 41.56 144.56 40.54 146.32 42.57 148.09 42.57 149.86 40.54 151.62 41.56 153.39 42.57 156.92 42.57 158.69 40.54 160.45 41.56 162.22 42.57 165.75 42.57 167.52 41.56 169.29 40.54 171.05 42.57 176.35 42.57 178.12 41.56 179.88 41.56 181.65 41.56 183.42 41.56 185.18 42.57 186.95 40.54 188.72 42.57 195.78 42.57 197.55 41.56 199.31 42.57 201.08 42.57 202.85 41.56 204.61 42.57 209.91 42.57 211.68 39.53 213.44 40.54 215.21 36.48 216.98 42.57 218.74 41.56 220.51 39.53 222.28 42.57 224.04 42.57 225.81 39.53 227.57 41.56 229.34 42.57 231.11 41.56 232.87 40.54 234.64 41.56 236.41 41.56 238.17 42.57 239.94 40.54 241.71 42.57 243.47 40.54 245.24 42.57 248.77 42.57 250.54 41.56 252.3 41.56 254.07 42.57 259.37 42.57 261.13 41.56 262.9 42.57 264.67 42.57 266.43 41.56 268.2 40.54 269.97 42.57 271.73 42.57 273.5 41.56 275.27 40.54 277.03 41.56 278.8 42.57 280.56 42.57 282.33 41.56 282.33 42.57 280.56 42.57 278.8 42.57 277.03 42.57 275.27 42.57 273.5 42.57 271.73 42.57 269.97 42.57 268.2 42.57 266.43 42.57 264.67 42.57 262.9 42.57 261.13 42.57 259.37 42.57 254.07 42.57 252.3 42.57 250.54 42.57 248.77 42.57 245.24 42.57 243.47 42.57 241.71 42.57 239.94 42.57 238.17 42.57 236.41 42.57 234.64 42.57 232.87 42.57 231.11 42.57 229.34 42.57 227.57 42.57 225.81 42.57 224.04 42.57 222.28 42.57 220.51 42.57 218.74 42.57 216.98 42.57 215.21 42.57 213.44 42.57 211.68 42.57 209.91 42.57 204.61 42.57 202.85 42.57 201.08 42.57 199.31 42.57 197.55 42.57 195.78 42.57 188.72 42.57 186.95 42.57 185.18 42.57 183.42 42.57 181.65 42.57 179.88 42.57 178.12 42.57 176.35 42.57 171.05 42.57 169.29 42.57 167.52 42.57 165.75 42.57 162.22 42.57 160.45 42.57 158.69 42.57 156.92 42.57 153.39 42.57 151.62 42.57 149.86 42.57 148.09 42.57 146.32 42.57 144.56 42.57 142.79 42.57 141.02 42.57 139.26 42.57 137.49 42.57 135.73 42.57 133.96 42.57 132.19 42.57 130.43 42.57 125.13 42.57 123.36 42.57 121.6 42.57 118.06 42.57 116.3 42.57 114.53 42.57 109.23 42.57 107.46 42.57 105.7 42.57 103.93 42.57 102.17 42.57 100.4 42.57 98.63 42.57 95.1 42.57 93.33 42.57 91.57 42.57 89.8 42.57 88.03 42.57 86.27 42.57 84.5 42.57 82.74 42.57 80.97 42.57 79.2 42.57 77.44 42.57 75.67 42.57 73.9 42.57 72.14 42.57 66.84 42.57 65.07 42.57 63.31 42.57 61.54 42.57 59.77 42.57 58.01 42.57 56.24 42.57 54.47 42.57 52.71 42.57 50.94 42.57 49.18 42.57 47.41 42.57 45.64 42.57 43.88 42.57 42.11 42.57 40.34 42.57 38.58 42.57 36.81 42.57 36.81 40.54"/>
    <polyline class="cls-13" points="36.81 40.54 38.58 41.56 40.34 42.57 42.11 40.54 43.88 40.54 45.64 39.53 47.41 41.56 49.18 41.56 50.94 40.54 52.71 42.57 54.47 41.56 56.24 40.54 58.01 41.56 59.77 39.53 61.54 42.57 63.31 42.57 65.07 41.56 66.84 42.57 72.14 42.57 73.9 41.56 75.67 42.57 77.44 38.51 79.2 38.51 80.97 28.36 82.74 16.18 84.5 38.51 86.27 38.51 88.03 40.54 89.8 40.54 91.57 41.56 93.33 39.53 95.1 42.57 98.63 42.57 100.4 40.54 102.17 42.57 103.93 40.54 105.7 39.53 107.46 40.54 109.23 42.57 114.53 42.57 116.3 41.56 118.06 42.57 121.6 42.57 123.36 40.54 125.13 42.57 130.43 42.57 132.19 41.56 133.96 41.56 135.73 40.54 137.49 41.56 139.26 42.57 141.02 42.57 142.79 41.56 144.56 40.54 146.32 42.57 148.09 42.57 149.86 40.54 151.62 41.56 153.39 42.57 156.92 42.57 158.69 40.54 160.45 41.56 162.22 42.57 165.75 42.57 167.52 41.56 169.29 40.54 171.05 42.57 176.35 42.57 178.12 41.56 179.88 41.56 181.65 41.56 183.42 41.56 185.18 42.57 186.95 40.54 188.72 42.57 195.78 42.57 197.55 41.56 199.31 42.57 201.08 42.57 202.85 41.56 204.61 42.57 209.91 42.57 211.68 39.53 213.44 40.54 215.21 36.48 216.98 42.57 218.74 41.56 220.51 39.53 222.28 42.57 224.04 42.57 225.81 39.53 227.57 41.56 229.34 42.57 231.11 41.56 232.87 40.54 234.64 41.56 236.41 41.56 238.17 42.57 239.94 40.54 241.71 42.57 243.47 40.54 245.24 42.57 248.77 42.57 250.54 41.56 252.3 41.56 254.07 42.57 259.37 42.57 261.13 41.56 262.9 42.57 264.67 42.57 266.43 41.56 268.2 40.54 269.97 42.57 271.73 42.57 273.5 41.56 275.27 40.54 277.03 41.56 278.8 42.57 280.56 42.57 282.33 41.56"/>
    <rect class="cls-18" x="35.58" y="14.59" width="247.29" height="27.98"/>
  </g>
  <g class="cls-35">
    <polygon class="cls-50" points="36.81 69.53 38.58 69.53 40.34 68.5 42.11 69.53 43.88 69.53 45.64 70.55 50.94 70.55 52.71 68.5 54.47 70.55 56.24 70.55 58.01 69.53 59.77 70.55 65.07 70.55 66.84 68.5 68.61 70.55 70.37 70.55 72.14 67.48 73.9 68.5 75.67 70.55 77.44 69.53 79.2 65.43 80.97 57.23 82.74 52.1 84.5 67.48 86.27 69.53 88.03 70.55 89.8 68.5 91.57 68.5 93.33 69.53 95.1 70.55 96.87 69.53 98.63 70.55 107.46 70.55 109.23 68.5 111 69.53 112.76 70.55 121.6 70.55 123.36 69.53 125.13 70.55 126.89 70.55 128.66 69.53 130.43 70.55 139.26 70.55 141.02 69.53 142.79 70.55 149.86 70.55 151.62 69.53 153.39 70.55 174.58 70.55 176.35 69.53 178.12 69.53 179.88 69.53 181.65 70.55 183.42 69.53 185.18 68.5 186.95 69.53 188.72 69.53 190.48 69.53 192.25 70.55 194.01 69.53 195.78 67.48 197.55 69.53 199.31 70.55 204.61 70.55 206.38 69.53 208.14 70.55 209.91 68.5 211.68 70.55 213.44 64.4 215.21 65.43 216.98 69.53 218.74 67.48 220.51 70.55 222.28 69.53 224.04 68.5 225.81 70.55 227.57 68.5 229.34 69.53 231.11 67.48 232.87 69.53 234.64 70.55 236.41 66.45 238.17 69.53 239.94 67.48 241.71 67.48 243.47 69.53 245.24 69.53 247 69.53 248.77 70.55 250.54 70.55 252.3 69.53 254.07 70.55 255.84 70.55 257.6 67.48 259.37 70.55 262.9 70.55 264.67 69.53 266.43 70.55 271.73 70.55 273.5 69.53 275.27 69.53 277.03 70.55 278.8 68.5 280.56 68.5 282.33 68.5 282.33 70.55 280.56 70.55 278.8 70.55 277.03 70.55 275.27 70.55 273.5 70.55 271.73 70.55 266.43 70.55 264.67 70.55 262.9 70.55 259.37 70.55 257.6 70.55 255.84 70.55 254.07 70.55 252.3 70.55 250.54 70.55 248.77 70.55 247 70.55 245.24 70.55 243.47 70.55 241.71 70.55 239.94 70.55 238.17 70.55 236.41 70.55 234.64 70.55 232.87 70.55 231.11 70.55 229.34 70.55 227.57 70.55 225.81 70.55 224.04 70.55 222.28 70.55 220.51 70.55 218.74 70.55 216.98 70.55 215.21 70.55 213.44 70.55 211.68 70.55 209.91 70.55 208.14 70.55 206.38 70.55 204.61 70.55 199.31 70.55 197.55 70.55 195.78 70.55 194.01 70.55 192.25 70.55 190.48 70.55 188.72 70.55 186.95 70.55 185.18 70.55 183.42 70.55 181.65 70.55 179.88 70.55 178.12 70.55 176.35 70.55 174.58 70.55 153.39 70.55 151.62 70.55 149.86 70.55 142.79 70.55 141.02 70.55 139.26 70.55 130.43 70.55 128.66 70.55 126.89 70.55 125.13 70.55 123.36 70.55 121.6 70.55 112.76 70.55 111 70.55 109.23 70.55 107.46 70.55 98.63 70.55 96.87 70.55 95.1 70.55 93.33 70.55 91.57 70.55 89.8 70.55 88.03 70.55 86.27 70.55 84.5 70.55 82.74 70.55 80.97 70.55 79.2 70.55 77.44 70.55 75.67 70.55 73.9 70.55 72.14 70.55 70.37 70.55 68.61 70.55 66.84 70.55 65.07 70.55 59.77 70.55 58.01 70.55 56.24 70.55 54.47 70.55 52.71 70.55 50.94 70.55 45.64 70.55 43.88 70.55 42.11 70.55 40.34 70.55 38.58 70.55 36.81 70.55 36.81 69.53"/>
    <polyline class="cls-11" points="36.81 69.53 38.58 69.53 40.34 68.5 42.11 69.53 43.88 69.53 45.64 70.55 50.94 70.55 52.71 68.5 54.47 70.55 56.24 70.55 58.01 69.53 59.77 70.55 65.07 70.55 66.84 68.5 68.61 70.55 70.37 70.55 72.14 67.48 73.9 68.5 75.67 70.55 77.44 69.53 79.2 65.43 80.97 57.23 82.74 52.1 84.5 67.48 86.27 69.53 88.03 70.55 89.8 68.5 91.57 68.5 93.33 69.53 95.1 70.55 96.87 69.53 98.63 70.55 107.46 70.55 109.23 68.5 111 69.53 112.76 70.55 121.6 70.55 123.36 69.53 125.13 70.55 126.89 70.55 128.66 69.53 130.43 70.55 139.26 70.55 141.02 69.53 142.79 70.55 149.86 70.55 151.62 69.53 153.39 70.55 174.58 70.55 176.35 69.53 178.12 69.53 179.88 69.53 181.65 70.55 183.42 69.53 185.18 68.5 186.95 69.53 188.72 69.53 190.48 69.53 192.25 70.55 194.01 69.53 195.78 67.48 197.55 69.53 199.31 70.55 204.61 70.55 206.38 69.53 208.14 70.55 209.91 68.5 211.68 70.55 213.44 64.4 215.21 65.43 216.98 69.53 218.74 67.48 220.51 70.55 222.28 69.53 224.04 68.5 225.81 70.55 227.57 68.5 229.34 69.53 231.11 67.48 232.87 69.53 234.64 70.55 236.41 66.45 238.17 69.53 239.94 67.48 241.71 67.48 243.47 69.53 245.24 69.53 247 69.53 248.77 70.55 250.54 70.55 252.3 69.53 254.07 70.55 255.84 70.55 257.6 67.48 259.37 70.55 262.9 70.55 264.67 69.53 266.43 70.55 271.73 70.55 273.5 69.53 275.27 69.53 277.03 70.55 278.8 68.5 280.56 68.5 282.33 68.5"/>
    <rect class="cls-18" x="35.58" y="42.57" width="247.29" height="27.98"/>
  </g>
  <g class="cls-47">
    <polygon class="cls-51" points="36.81 98.53 38.58 92.42 40.34 96.09 42.11 97.31 43.88 96.09 45.64 98.53 47.41 97.31 49.18 96.09 50.94 96.09 52.71 96.09 54.47 93.64 56.24 98.53 58.01 97.31 59.77 97.31 61.54 98.53 63.31 97.31 65.07 98.53 66.84 97.31 68.61 97.31 70.37 98.53 72.14 96.09 73.9 98.53 75.67 97.31 77.44 98.53 79.2 93.64 80.97 85.08 82.74 85.08 84.5 88.75 86.27 88.75 88.03 94.86 89.8 98.53 91.57 97.31 93.33 98.53 96.87 98.53 98.63 96.09 100.4 98.53 102.17 98.53 103.93 97.31 105.7 97.31 107.46 98.53 119.83 98.53 121.6 97.31 123.36 97.31 125.13 93.64 126.89 97.31 128.66 98.53 130.43 97.31 132.19 94.86 133.96 96.09 135.73 97.31 137.49 96.09 139.26 96.09 141.02 96.09 142.79 97.31 144.56 98.53 146.32 98.53 148.09 97.31 149.86 96.09 151.62 97.31 153.39 98.53 158.69 98.53 160.45 96.09 162.22 96.09 163.99 97.31 165.75 98.53 167.52 98.53 169.29 97.31 171.05 98.53 174.58 98.53 176.35 97.31 178.12 97.31 179.88 97.31 181.65 94.86 183.42 96.09 185.18 94.86 186.95 98.53 190.48 98.53 192.25 97.31 194.01 97.31 195.78 98.53 197.55 98.53 199.31 97.31 201.08 98.53 202.85 97.31 204.61 96.09 206.38 98.53 208.14 97.31 209.91 98.53 211.68 93.64 213.44 92.42 215.21 94.86 216.98 98.53 218.74 94.86 220.51 93.64 222.28 94.86 224.04 96.09 225.81 98.53 227.57 98.53 229.34 97.31 231.11 97.31 232.87 97.31 234.64 97.31 236.41 97.31 238.17 98.53 239.94 97.31 241.71 96.09 243.47 94.86 245.24 98.53 247 97.31 248.77 96.09 250.54 98.53 259.37 98.53 261.13 97.31 262.9 94.86 264.67 98.53 266.43 98.53 268.2 97.31 269.97 97.31 271.73 98.53 273.5 96.09 275.27 98.53 277.03 96.09 278.8 98.53 280.56 97.31 282.33 98.53 280.56 98.53 278.8 98.53 277.03 98.53 275.27 98.53 273.5 98.53 271.73 98.53 269.97 98.53 268.2 98.53 266.43 98.53 264.67 98.53 262.9 98.53 261.13 98.53 259.37 98.53 250.54 98.53 248.77 98.53 247 98.53 245.24 98.53 243.47 98.53 241.71 98.53 239.94 98.53 238.17 98.53 236.41 98.53 234.64 98.53 232.87 98.53 231.11 98.53 229.34 98.53 227.57 98.53 225.81 98.53 224.04 98.53 222.28 98.53 220.51 98.53 218.74 98.53 216.98 98.53 215.21 98.53 213.44 98.53 211.68 98.53 209.91 98.53 208.14 98.53 206.38 98.53 204.61 98.53 202.85 98.53 201.08 98.53 199.31 98.53 197.55 98.53 195.78 98.53 194.01 98.53 192.25 98.53 190.48 98.53 186.95 98.53 185.18 98.53 183.42 98.53 181.65 98.53 179.88 98.53 178.12 98.53 176.35 98.53 174.58 98.53 171.05 98.53 169.29 98.53 167.52 98.53 165.75 98.53 163.99 98.53 162.22 98.53 160.45 98.53 158.69 98.53 153.39 98.53 151.62 98.53 149.86 98.53 148.09 98.53 146.32 98.53 144.56 98.53 142.79 98.53 141.02 98.53 139.26 98.53 137.49 98.53 135.73 98.53 133.96 98.53 132.19 98.53 130.43 98.53 128.66 98.53 126.89 98.53 125.13 98.53 123.36 98.53 121.6 98.53 119.83 98.53 107.46 98.53 105.7 98.53 103.93 98.53 102.17 98.53 100.4 98.53 98.63 98.53 96.87 98.53 93.33 98.53 91.57 98.53 89.8 98.53 88.03 98.53 86.27 98.53 84.5 98.53 82.74 98.53 80.97 98.53 79.2 98.53 77.44 98.53 75.67 98.53 73.9 98.53 72.14 98.53 70.37 98.53 68.61 98.53 66.84 98.53 65.07 98.53 63.31 98.53 61.54 98.53 59.77 98.53 58.01 98.53 56.24 98.53 54.47 98.53 52.71 98.53 50.94 98.53 49.18 98.53 47.41 98.53 45.64 98.53 43.88 98.53 42.11 98.53 40.34 98.53 38.58 98.53 36.81 98.53"/>
    <polyline class="cls-12" points="36.81 98.53 38.58 92.42 40.34 96.09 42.11 97.31 43.88 96.09 45.64 98.53 47.41 97.31 49.18 96.09 50.94 96.09 52.71 96.09 54.47 93.64 56.24 98.53 58.01 97.31 59.77 97.31 61.54 98.53 63.31 97.31 65.07 98.53 66.84 97.31 68.61 97.31 70.37 98.53 72.14 96.09 73.9 98.53 75.67 97.31 77.44 98.53 79.2 93.64 80.97 85.08 82.74 85.08 84.5 88.75 86.27 88.75 88.03 94.86 89.8 98.53 91.57 97.31 93.33 98.53 96.87 98.53 98.63 96.09 100.4 98.53 102.17 98.53 103.93 97.31 105.7 97.31 107.46 98.53 119.83 98.53 121.6 97.31 123.36 97.31 125.13 93.64 126.89 97.31 128.66 98.53 130.43 97.31 132.19 94.86 133.96 96.09 135.73 97.31 137.49 96.09 139.26 96.09 141.02 96.09 142.79 97.31 144.56 98.53 146.32 98.53 148.09 97.31 149.86 96.09 151.62 97.31 153.39 98.53 158.69 98.53 160.45 96.09 162.22 96.09 163.99 97.31 165.75 98.53 167.52 98.53 169.29 97.31 171.05 98.53 174.58 98.53 176.35 97.31 178.12 97.31 179.88 97.31 181.65 94.86 183.42 96.09 185.18 94.86 186.95 98.53 190.48 98.53 192.25 97.31 194.01 97.31 195.78 98.53 197.55 98.53 199.31 97.31 201.08 98.53 202.85 97.31 204.61 96.09 206.38 98.53 208.14 97.31 209.91 98.53 211.68 93.64 213.44 92.42 215.21 94.86 216.98 98.53 218.74 94.86 220.51 93.64 222.28 94.86 224.04 96.09 225.81 98.53 227.57 98.53 229.34 97.31 231.11 97.31 232.87 97.31 234.64 97.31 236.41 97.31 238.17 98.53 239.94 97.31 241.71 96.09 243.47 94.86 245.24 98.53 247 97.31 248.77 96.09 250.54 98.53 259.37 98.53 261.13 97.31 262.9 94.86 264.67 98.53 266.43 98.53 268.2 97.31 269.97 97.31 271.73 98.53 273.5 96.09 275.27 98.53 277.03 96.09 278.8 98.53 280.56 97.31 282.33 98.53"/>
    <rect class="cls-18" x="35.58" y="70.55" width="247.29" height="27.98"/>
  </g>
  <g class="cls-40">
    <polygon class="cls-30" points="36.81 123.48 38.58 120.46 40.34 126.51 42.11 122.47 43.88 124.49 45.64 124.49 47.41 123.48 49.18 124.49 50.94 125.5 52.71 125.5 54.47 126.51 56.24 124.49 58.01 124.49 59.77 123.48 61.54 124.49 63.31 124.49 65.07 125.5 66.84 124.49 68.61 126.51 70.37 124.49 72.14 124.49 73.9 126.51 75.67 126.51 77.44 124.49 79.2 119.45 80.97 117.43 82.74 116.42 84.5 117.43 86.27 122.47 88.03 125.5 89.8 126.51 91.57 126.51 93.33 125.5 95.1 126.51 96.87 125.5 98.63 126.51 100.4 124.49 102.17 124.49 103.93 126.51 105.7 125.5 107.46 124.49 109.23 126.51 111 125.5 112.76 126.51 114.53 123.48 116.3 125.5 118.06 125.5 119.83 126.51 121.6 124.49 123.36 124.49 125.13 125.5 126.89 122.47 128.66 124.49 130.43 123.48 132.19 125.5 133.96 124.49 135.73 126.51 137.49 122.47 139.26 124.49 141.02 124.49 142.79 124.49 144.56 126.51 146.32 126.51 148.09 125.5 149.86 126.51 156.92 126.51 158.69 125.5 160.45 126.51 163.99 126.51 165.75 125.5 167.52 124.49 169.29 124.49 171.05 124.49 172.82 123.48 174.58 125.5 176.35 126.51 181.65 126.51 183.42 124.49 185.18 125.5 186.95 126.51 188.72 122.47 190.48 125.5 192.25 126.51 194.01 126.51 195.78 125.5 197.55 124.49 199.31 126.51 201.08 125.5 202.85 126.51 204.61 125.5 206.38 124.49 208.14 125.5 209.91 125.5 211.68 124.49 213.44 126.51 215.21 117.43 216.98 124.49 218.74 123.48 220.51 126.51 222.28 125.5 224.04 125.5 225.81 124.49 227.57 126.51 229.34 125.5 231.11 124.49 232.87 125.5 234.64 125.5 236.41 125.5 238.17 124.49 239.94 125.5 241.71 124.49 243.47 126.51 245.24 125.5 247 125.5 248.77 126.51 250.54 126.51 252.3 125.5 254.07 126.51 259.37 126.51 261.13 125.5 262.9 126.51 264.67 125.5 266.43 126.51 268.2 125.5 269.97 125.5 271.73 125.5 273.5 125.5 275.27 125.5 277.03 126.51 278.8 125.5 280.56 125.5 282.33 125.5 282.33 126.51 280.56 126.51 278.8 126.51 277.03 126.51 275.27 126.51 273.5 126.51 271.73 126.51 269.97 126.51 268.2 126.51 266.43 126.51 264.67 126.51 262.9 126.51 261.13 126.51 259.37 126.51 254.07 126.51 252.3 126.51 250.54 126.51 248.77 126.51 247 126.51 245.24 126.51 243.47 126.51 241.71 126.51 239.94 126.51 238.17 126.51 236.41 126.51 234.64 126.51 232.87 126.51 231.11 126.51 229.34 126.51 227.57 126.51 225.81 126.51 224.04 126.51 222.28 126.51 220.51 126.51 218.74 126.51 216.98 126.51 215.21 126.51 213.44 126.51 211.68 126.51 209.91 126.51 208.14 126.51 206.38 126.51 204.61 126.51 202.85 126.51 201.08 126.51 199.31 126.51 197.55 126.51 195.78 126.51 194.01 126.51 192.25 126.51 190.48 126.51 188.72 126.51 186.95 126.51 185.18 126.51 183.42 126.51 181.65 126.51 176.35 126.51 174.58 126.51 172.82 126.51 171.05 126.51 169.29 126.51 167.52 126.51 165.75 126.51 163.99 126.51 160.45 126.51 158.69 126.51 156.92 126.51 149.86 126.51 148.09 126.51 146.32 126.51 144.56 126.51 142.79 126.51 141.02 126.51 139.26 126.51 137.49 126.51 135.73 126.51 133.96 126.51 132.19 126.51 130.43 126.51 128.66 126.51 126.89 126.51 125.13 126.51 123.36 126.51 121.6 126.51 119.83 126.51 118.06 126.51 116.3 126.51 114.53 126.51 112.76 126.51 111 126.51 109.23 126.51 107.46 126.51 105.7 126.51 103.93 126.51 102.17 126.51 100.4 126.51 98.63 126.51 96.87 126.51 95.1 126.51 93.33 126.51 91.57 126.51 89.8 126.51 88.03 126.51 86.27 126.51 84.5 126.51 82.74 126.51 80.97 126.51 79.2 126.51 77.44 126.51 75.67 126.51 73.9 126.51 72.14 126.51 70.37 126.51 68.61 126.51 66.84 126.51 65.07 126.51 63.31 126.51 61.54 126.51 59.77 126.51 58.01 126.51 56.24 126.51 54.47 126.51 52.71 126.51 50.94 126.51 49.18 126.51 47.41 126.51 45.64 126.51 43.88 126.51 42.11 126.51 40.34 126.51 38.58 126.51 36.81 126.51 36.81 123.48"/>
    <polyline class="cls-25" points="36.81 123.48 38.58 120.46 40.34 126.51 42.11 122.47 43.88 124.49 45.64 124.49 47.41 123.48 49.18 124.49 50.94 125.5 52.71 125.5 54.47 126.51 56.24 124.49 58.01 124.49 59.77 123.48 61.54 124.49 63.31 124.49 65.07 125.5 66.84 124.49 68.61 126.51 70.37 124.49 72.14 124.49 73.9 126.51 75.67 126.51 77.44 124.49 79.2 119.45 80.97 117.43 82.74 116.42 84.5 117.43 86.27 122.47 88.03 125.5 89.8 126.51 91.57 126.51 93.33 125.5 95.1 126.51 96.87 125.5 98.63 126.51 100.4 124.49 102.17 124.49 103.93 126.51 105.7 125.5 107.46 124.49 109.23 126.51 111 125.5 112.76 126.51 114.53 123.48 116.3 125.5 118.06 125.5 119.83 126.51 121.6 124.49 123.36 124.49 125.13 125.5 126.89 122.47 128.66 124.49 130.43 123.48 132.19 125.5 133.96 124.49 135.73 126.51 137.49 122.47 139.26 124.49 141.02 124.49 142.79 124.49 144.56 126.51 146.32 126.51 148.09 125.5 149.86 126.51 156.92 126.51 158.69 125.5 160.45 126.51 163.99 126.51 165.75 125.5 167.52 124.49 169.29 124.49 171.05 124.49 172.82 123.48 174.58 125.5 176.35 126.51 181.65 126.51 183.42 124.49 185.18 125.5 186.95 126.51 188.72 122.47 190.48 125.5 192.25 126.51 194.01 126.51 195.78 125.5 197.55 124.49 199.31 126.51 201.08 125.5 202.85 126.51 204.61 125.5 206.38 124.49 208.14 125.5 209.91 125.5 211.68 124.49 213.44 126.51 215.21 117.43 216.98 124.49 218.74 123.48 220.51 126.51 222.28 125.5 224.04 125.5 225.81 124.49 227.57 126.51 229.34 125.5 231.11 124.49 232.87 125.5 234.64 125.5 236.41 125.5 238.17 124.49 239.94 125.5 241.71 124.49 243.47 126.51 245.24 125.5 247 125.5 248.77 126.51 250.54 126.51 252.3 125.5 254.07 126.51 259.37 126.51 261.13 125.5 262.9 126.51 264.67 125.5 266.43 126.51 268.2 125.5 269.97 125.5 271.73 125.5 273.5 125.5 275.27 125.5 277.03 126.51 278.8 125.5 280.56 125.5 282.33 125.5"/>
    <rect class="cls-18" x="35.58" y="98.53" width="247.29" height="27.98"/>
  </g>
  <g class="cls-9">
    <polygon class="cls-36" points="36.81 154.49 38.58 152.21 40.34 154.49 42.11 154.49 43.88 153.35 45.64 154.49 47.41 152.21 49.18 153.35 50.94 154.49 54.47 154.49 56.24 153.35 58.01 154.49 59.77 151.07 61.54 153.35 63.31 154.49 65.07 151.07 66.84 154.49 68.61 153.35 70.37 154.49 72.14 154.49 73.9 153.35 75.67 153.35 77.44 153.35 79.2 151.07 80.97 146.52 82.74 148.8 84.5 146.52 86.27 152.21 88.03 153.35 89.8 153.35 91.57 153.35 93.33 153.35 95.1 153.35 96.87 153.35 98.63 154.49 105.7 154.49 107.46 152.21 109.23 153.35 111 152.21 112.76 153.35 114.53 152.21 116.3 154.49 118.06 153.35 119.83 152.21 121.6 154.49 123.36 153.35 125.13 154.49 126.89 153.35 128.66 154.49 130.43 152.21 132.19 153.35 133.96 154.49 135.73 151.07 137.49 154.49 144.56 154.49 146.32 153.35 148.09 153.35 149.86 154.49 155.16 154.49 156.92 153.35 158.69 154.49 163.99 154.49 165.75 153.35 167.52 154.49 169.29 154.49 171.05 152.21 172.82 152.21 174.58 154.49 176.35 153.35 178.12 153.35 179.88 154.49 181.65 154.49 183.42 153.35 185.18 153.35 186.95 153.35 188.72 154.49 197.55 154.49 199.31 153.35 201.08 153.35 202.85 154.49 204.61 152.21 206.38 154.49 209.91 154.49 211.68 152.21 213.44 152.21 215.21 139.69 216.98 152.21 218.74 149.94 220.51 153.35 222.28 153.35 224.04 152.21 225.81 153.35 227.57 151.07 229.34 151.07 231.11 147.66 232.87 139.69 234.64 140.83 236.41 148.8 238.17 143.11 239.94 136.28 241.71 144.25 243.47 147.66 245.24 130.59 247 126.51 248.77 151.07 250.54 149.94 252.3 153.35 254.07 154.49 255.84 154.49 257.6 153.35 259.37 154.49 261.13 154.49 262.9 153.35 264.67 153.35 266.43 153.35 268.2 153.35 269.97 153.35 271.73 154.49 273.5 152.21 275.27 154.49 277.03 154.49 278.8 152.21 280.56 153.35 282.33 154.49 280.56 154.49 278.8 154.49 277.03 154.49 275.27 154.49 273.5 154.49 271.73 154.49 269.97 154.49 268.2 154.49 266.43 154.49 264.67 154.49 262.9 154.49 261.13 154.49 259.37 154.49 257.6 154.49 255.84 154.49 254.07 154.49 252.3 154.49 250.54 154.49 248.77 154.49 247 154.49 245.24 154.49 243.47 154.49 241.71 154.49 239.94 154.49 238.17 154.49 236.41 154.49 234.64 154.49 232.87 154.49 231.11 154.49 229.34 154.49 227.57 154.49 225.81 154.49 224.04 154.49 222.28 154.49 220.51 154.49 218.74 154.49 216.98 154.49 215.21 154.49 213.44 154.49 211.68 154.49 209.91 154.49 206.38 154.49 204.61 154.49 202.85 154.49 201.08 154.49 199.31 154.49 197.55 154.49 188.72 154.49 186.95 154.49 185.18 154.49 183.42 154.49 181.65 154.49 179.88 154.49 178.12 154.49 176.35 154.49 174.58 154.49 172.82 154.49 171.05 154.49 169.29 154.49 167.52 154.49 165.75 154.49 163.99 154.49 158.69 154.49 156.92 154.49 155.16 154.49 149.86 154.49 148.09 154.49 146.32 154.49 144.56 154.49 137.49 154.49 135.73 154.49 133.96 154.49 132.19 154.49 130.43 154.49 128.66 154.49 126.89 154.49 125.13 154.49 123.36 154.49 121.6 154.49 119.83 154.49 118.06 154.49 116.3 154.49 114.53 154.49 112.76 154.49 111 154.49 109.23 154.49 107.46 154.49 105.7 154.49 98.63 154.49 96.87 154.49 95.1 154.49 93.33 154.49 91.57 154.49 89.8 154.49 88.03 154.49 86.27 154.49 84.5 154.49 82.74 154.49 80.97 154.49 79.2 154.49 77.44 154.49 75.67 154.49 73.9 154.49 72.14 154.49 70.37 154.49 68.61 154.49 66.84 154.49 65.07 154.49 63.31 154.49 61.54 154.49 59.77 154.49 58.01 154.49 56.24 154.49 54.47 154.49 50.94 154.49 49.18 154.49 47.41 154.49 45.64 154.49 43.88 154.49 42.11 154.49 40.34 154.49 38.58 154.49 36.81 154.49"/>
    <polyline class="cls-10" points="36.81 154.49 38.58 152.21 40.34 154.49 42.11 154.49 43.88 153.35 45.64 154.49 47.41 152.21 49.18 153.35 50.94 154.49 54.47 154.49 56.24 153.35 58.01 154.49 59.77 151.07 61.54 153.35 63.31 154.49 65.07 151.07 66.84 154.49 68.61 153.35 70.37 154.49 72.14 154.49 73.9 153.35 75.67 153.35 77.44 153.35 79.2 151.07 80.97 146.52 82.74 148.8 84.5 146.52 86.27 152.21 88.03 153.35 89.8 153.35 91.57 153.35 93.33 153.35 95.1 153.35 96.87 153.35 98.63 154.49 105.7 154.49 107.46 152.21 109.23 153.35 111 152.21 112.76 153.35 114.53 152.21 116.3 154.49 118.06 153.35 119.83 152.21 121.6 154.49 123.36 153.35 125.13 154.49 126.89 153.35 128.66 154.49 130.43 152.21 132.19 153.35 133.96 154.49 135.73 151.07 137.49 154.49 144.56 154.49 146.32 153.35 148.09 153.35 149.86 154.49 155.16 154.49 156.92 153.35 158.69 154.49 163.99 154.49 165.75 153.35 167.52 154.49 169.29 154.49 171.05 152.21 172.82 152.21 174.58 154.49 176.35 153.35 178.12 153.35 179.88 154.49 181.65 154.49 183.42 153.35 185.18 153.35 186.95 153.35 188.72 154.49 197.55 154.49 199.31 153.35 201.08 153.35 202.85 154.49 204.61 152.21 206.38 154.49 209.91 154.49 211.68 152.21 213.44 152.21 215.21 139.69 216.98 152.21 218.74 149.94 220.51 153.35 222.28 153.35 224.04 152.21 225.81 153.35 227.57 151.07 229.34 151.07 231.11 147.66 232.87 139.69 234.64 140.83 236.41 148.8 238.17 143.11 239.94 136.28 241.71 144.25 243.47 147.66 245.24 130.59 247 126.51 248.77 151.07 250.54 149.94 252.3 153.35 254.07 154.49 255.84 154.49 257.6 153.35 259.37 154.49 261.13 154.49 262.9 153.35 264.67 153.35 266.43 153.35 268.2 153.35 269.97 153.35 271.73 154.49 273.5 152.21 275.27 154.49 277.03 154.49 278.8 152.21 280.56 153.35 282.33 154.49"/>
    <rect class="cls-18" x="35.58" y="126.51" width="247.29" height="27.98"/>
  </g>
  <g class="cls-38">
    <polygon class="cls-41" points="40.34 182.47 42.11 181.33 43.88 181.33 45.64 181.33 47.41 182.47 49.18 182.47 50.94 181.33 52.71 181.33 54.47 182.47 63.31 182.47 65.07 181.33 66.84 181.33 68.61 182.47 73.9 182.47 75.67 181.33 77.44 182.47 79.2 180.19 80.97 175.63 82.74 167.65 84.5 180.19 86.27 182.47 88.03 182.47 89.8 181.33 91.57 182.47 93.33 181.33 95.1 182.47 96.87 181.33 98.63 182.47 102.17 182.47 103.93 181.33 105.7 182.47 111 182.47 112.76 181.33 114.53 182.47 116.3 182.47 118.06 181.33 119.83 182.47 121.6 182.47 123.36 181.33 125.13 181.33 126.89 182.47 128.66 181.33 130.43 182.47 165.75 182.47 167.52 181.33 169.29 181.33 171.05 182.47 181.65 182.47 183.42 181.33 185.18 182.47 195.78 182.47 197.55 181.33 199.31 182.47 201.08 181.33 202.85 181.33 204.61 182.47 206.38 181.33 208.14 182.47 209.91 180.19 211.68 182.47 213.44 181.33 215.21 175.63 216.98 182.47 220.51 182.47 222.28 181.33 224.04 182.47 225.81 181.33 227.57 181.33 229.34 181.33 231.11 182.47 234.64 182.47 236.41 181.33 238.17 182.47 247 182.47 248.77 181.33 250.54 182.47 259.37 182.47 261.13 181.33 262.9 182.47 268.2 182.47 269.97 181.33 271.73 181.33 273.5 182.47 271.73 182.47 269.97 182.47 268.2 182.47 262.9 182.47 261.13 182.47 259.37 182.47 250.54 182.47 248.77 182.47 247 182.47 238.17 182.47 236.41 182.47 234.64 182.47 231.11 182.47 229.34 182.47 227.57 182.47 225.81 182.47 224.04 182.47 222.28 182.47 220.51 182.47 216.98 182.47 215.21 182.47 213.44 182.47 211.68 182.47 209.91 182.47 208.14 182.47 206.38 182.47 204.61 182.47 202.85 182.47 201.08 182.47 199.31 182.47 197.55 182.47 195.78 182.47 185.18 182.47 183.42 182.47 181.65 182.47 171.05 182.47 169.29 182.47 167.52 182.47 165.75 182.47 130.43 182.47 128.66 182.47 126.89 182.47 125.13 182.47 123.36 182.47 121.6 182.47 119.83 182.47 118.06 182.47 116.3 182.47 114.53 182.47 112.76 182.47 111 182.47 105.7 182.47 103.93 182.47 102.17 182.47 98.63 182.47 96.87 182.47 95.1 182.47 93.33 182.47 91.57 182.47 89.8 182.47 88.03 182.47 86.27 182.47 84.5 182.47 82.74 182.47 80.97 182.47 79.2 182.47 77.44 182.47 75.67 182.47 73.9 182.47 68.61 182.47 66.84 182.47 65.07 182.47 63.31 182.47 54.47 182.47 52.71 182.47 50.94 182.47 49.18 182.47 47.41 182.47 45.64 182.47 43.88 182.47 42.11 182.47 40.34 182.47"/>
    <polyline class="cls-20" points="40.34 182.47 42.11 181.33 43.88 181.33 45.64 181.33 47.41 182.47 49.18 182.47 50.94 181.33 52.71 181.33 54.47 182.47 63.31 182.47 65.07 181.33 66.84 181.33 68.61 182.47 73.9 182.47 75.67 181.33 77.44 182.47 79.2 180.19 80.97 175.63 82.74 167.65 84.5 180.19 86.27 182.47 88.03 182.47 89.8 181.33 91.57 182.47 93.33 181.33 95.1 182.47 96.87 181.33 98.63 182.47 102.17 182.47 103.93 181.33 105.7 182.47 111 182.47 112.76 181.33 114.53 182.47 116.3 182.47 118.06 181.33 119.83 182.47 121.6 182.47 123.36 181.33 125.13 181.33 126.89 182.47 128.66 181.33 130.43 182.47 165.75 182.47 167.52 181.33 169.29 181.33 171.05 182.47 181.65 182.47 183.42 181.33 185.18 182.47 195.78 182.47 197.55 181.33 199.31 182.47 201.08 181.33 202.85 181.33 204.61 182.47 206.38 181.33 208.14 182.47 209.91 180.19 211.68 182.47 213.44 181.33 215.21 175.63 216.98 182.47 220.51 182.47 222.28 181.33 224.04 182.47 225.81 181.33 227.57 181.33 229.34 181.33 231.11 182.47 234.64 182.47 236.41 181.33 238.17 182.47 247 182.47 248.77 181.33 250.54 182.47 259.37 182.47 261.13 181.33 262.9 182.47 268.2 182.47 269.97 181.33 271.73 181.33 273.5 182.47"/>
    <rect class="cls-18" x="35.58" y="154.49" width="247.29" height="27.98"/>
  </g>
  <g class="cls-4">
    <polygon class="cls-49" points="36.81 210.45 38.58 207.33 40.34 208.37 42.11 210.45 43.88 210.45 45.64 208.37 47.41 209.41 49.18 209.41 50.94 209.41 52.71 210.45 54.47 210.45 56.24 209.41 58.01 210.45 59.77 209.41 61.54 209.41 63.31 210.45 65.07 209.41 66.84 208.37 68.61 210.45 70.37 209.41 72.14 207.33 73.9 210.45 75.67 210.45 77.44 209.41 79.2 205.25 80.97 204.21 82.74 193.82 84.5 207.33 86.27 204.21 88.03 208.37 89.8 209.41 91.57 209.41 93.33 210.45 95.1 209.41 96.87 210.45 98.63 209.41 100.4 210.45 102.17 210.45 103.93 209.41 105.7 209.41 107.46 210.45 111 210.45 112.76 209.41 114.53 210.45 116.3 209.41 118.06 210.45 119.83 209.41 121.6 209.41 123.36 208.37 125.13 208.37 126.89 209.41 128.66 210.45 130.43 210.45 132.19 209.41 133.96 210.45 135.73 210.45 137.49 209.41 139.26 210.45 141.02 210.45 142.79 208.37 144.56 209.41 146.32 210.45 148.09 210.45 149.86 209.41 151.62 210.45 153.39 210.45 155.16 209.41 156.92 208.37 158.69 210.45 160.45 208.37 162.22 210.45 171.05 210.45 172.82 209.41 174.58 209.41 176.35 210.45 178.12 209.41 179.88 208.37 181.65 209.41 183.42 209.41 185.18 209.41 186.95 209.41 188.72 209.41 190.48 210.45 192.25 210.45 194.01 209.41 195.78 210.45 197.55 210.45 199.31 208.37 201.08 210.45 202.85 210.45 204.61 209.41 206.38 209.41 208.14 209.41 209.91 210.45 211.68 206.29 213.44 205.25 215.21 197.98 216.98 210.45 220.51 210.45 222.28 209.41 224.04 210.45 225.81 210.45 227.57 209.41 229.34 209.41 231.11 208.37 232.87 209.41 234.64 209.41 236.41 208.37 238.17 209.41 239.94 210.45 241.71 209.41 243.47 210.45 245.24 209.41 247 210.45 248.77 209.41 250.54 210.45 259.37 210.45 261.13 208.37 262.9 209.41 264.67 209.41 266.43 209.41 268.2 209.41 269.97 210.45 275.27 210.45 277.03 209.41 278.8 209.41 280.56 210.45 278.8 210.45 277.03 210.45 275.27 210.45 269.97 210.45 268.2 210.45 266.43 210.45 264.67 210.45 262.9 210.45 261.13 210.45 259.37 210.45 250.54 210.45 248.77 210.45 247 210.45 245.24 210.45 243.47 210.45 241.71 210.45 239.94 210.45 238.17 210.45 236.41 210.45 234.64 210.45 232.87 210.45 231.11 210.45 229.34 210.45 227.57 210.45 225.81 210.45 224.04 210.45 222.28 210.45 220.51 210.45 216.98 210.45 215.21 210.45 213.44 210.45 211.68 210.45 209.91 210.45 208.14 210.45 206.38 210.45 204.61 210.45 202.85 210.45 201.08 210.45 199.31 210.45 197.55 210.45 195.78 210.45 194.01 210.45 192.25 210.45 190.48 210.45 188.72 210.45 186.95 210.45 185.18 210.45 183.42 210.45 181.65 210.45 179.88 210.45 178.12 210.45 176.35 210.45 174.58 210.45 172.82 210.45 171.05 210.45 162.22 210.45 160.45 210.45 158.69 210.45 156.92 210.45 155.16 210.45 153.39 210.45 151.62 210.45 149.86 210.45 148.09 210.45 146.32 210.45 144.56 210.45 142.79 210.45 141.02 210.45 139.26 210.45 137.49 210.45 135.73 210.45 133.96 210.45 132.19 210.45 130.43 210.45 128.66 210.45 126.89 210.45 125.13 210.45 123.36 210.45 121.6 210.45 119.83 210.45 118.06 210.45 116.3 210.45 114.53 210.45 112.76 210.45 111 210.45 107.46 210.45 105.7 210.45 103.93 210.45 102.17 210.45 100.4 210.45 98.63 210.45 96.87 210.45 95.1 210.45 93.33 210.45 91.57 210.45 89.8 210.45 88.03 210.45 86.27 210.45 84.5 210.45 82.74 210.45 80.97 210.45 79.2 210.45 77.44 210.45 75.67 210.45 73.9 210.45 72.14 210.45 70.37 210.45 68.61 210.45 66.84 210.45 65.07 210.45 63.31 210.45 61.54 210.45 59.77 210.45 58.01 210.45 56.24 210.45 54.47 210.45 52.71 210.45 50.94 210.45 49.18 210.45 47.41 210.45 45.64 210.45 43.88 210.45 42.11 210.45 40.34 210.45 38.58 210.45 36.81 210.45"/>
    <polyline class="cls-16" points="36.81 210.45 38.58 207.33 40.34 208.37 42.11 210.45 43.88 210.45 45.64 208.37 47.41 209.41 49.18 209.41 50.94 209.41 52.71 210.45 54.47 210.45 56.24 209.41 58.01 210.45 59.77 209.41 61.54 209.41 63.31 210.45 65.07 209.41 66.84 208.37 68.61 210.45 70.37 209.41 72.14 207.33 73.9 210.45 75.67 210.45 77.44 209.41 79.2 205.25 80.97 204.21 82.74 193.82 84.5 207.33 86.27 204.21 88.03 208.37 89.8 209.41 91.57 209.41 93.33 210.45 95.1 209.41 96.87 210.45 98.63 209.41 100.4 210.45 102.17 210.45 103.93 209.41 105.7 209.41 107.46 210.45 111 210.45 112.76 209.41 114.53 210.45 116.3 209.41 118.06 210.45 119.83 209.41 121.6 209.41 123.36 208.37 125.13 208.37 126.89 209.41 128.66 210.45 130.43 210.45 132.19 209.41 133.96 210.45 135.73 210.45 137.49 209.41 139.26 210.45 141.02 210.45 142.79 208.37 144.56 209.41 146.32 210.45 148.09 210.45 149.86 209.41 151.62 210.45 153.39 210.45 155.16 209.41 156.92 208.37 158.69 210.45 160.45 208.37 162.22 210.45 171.05 210.45 172.82 209.41 174.58 209.41 176.35 210.45 178.12 209.41 179.88 208.37 181.65 209.41 183.42 209.41 185.18 209.41 186.95 209.41 188.72 209.41 190.48 210.45 192.25 210.45 194.01 209.41 195.78 210.45 197.55 210.45 199.31 208.37 201.08 210.45 202.85 210.45 204.61 209.41 206.38 209.41 208.14 209.41 209.91 210.45 211.68 206.29 213.44 205.25 215.21 197.98 216.98 210.45 220.51 210.45 222.28 209.41 224.04 210.45 225.81 210.45 227.57 209.41 229.34 209.41 231.11 208.37 232.87 209.41 234.64 209.41 236.41 208.37 238.17 209.41 239.94 210.45 241.71 209.41 243.47 210.45 245.24 209.41 247 210.45 248.77 209.41 250.54 210.45 259.37 210.45 261.13 208.37 262.9 209.41 264.67 209.41 266.43 209.41 268.2 209.41 269.97 210.45 275.27 210.45 277.03 209.41 278.8 209.41 280.56 210.45"/>
    <rect class="cls-18" x="35.58" y="182.47" width="247.29" height="27.98"/>
  </g>
  <g class="cls-5">
    <line class="cls-24" x1="64.73" y1="289.14" x2="35.58" y2="289.14"/>
    <line class="cls-24" x1="247.54" y1="253.53" x2="79.98" y2="253.53"/>
    <line class="cls-14" x1="44.05" y1="289.14" x2="45.09" y2="289.14"/>
    <line class="cls-14" x1="44.05" y1="289.14" x2="45.09" y2="289.14"/>
    <line class="cls-14" x1="44.05" y1="289.14" x2="45.09" y2="289.14"/>
    <line class="cls-14" x1="44.05" y1="289.14" x2="45.09" y2="289.14"/>
    <line class="cls-14" x1="45.74" y1="289.14" x2="46.43" y2="289.14"/>
    <line class="cls-14" x1="45.74" y1="289.14" x2="46.43" y2="289.14"/>
    <line class="cls-14" x1="45.74" y1="289.14" x2="46.43" y2="289.14"/>
    <line class="cls-14" x1="45.74" y1="289.14" x2="46.43" y2="289.14"/>
    <line class="cls-14" x1="49.19" y1="289.14" x2="49.99" y2="289.14"/>
    <line class="cls-14" x1="49.19" y1="289.14" x2="49.99" y2="289.14"/>
    <line class="cls-14" x1="49.19" y1="289.14" x2="49.99" y2="289.14"/>
    <line class="cls-14" x1="49.19" y1="289.14" x2="49.99" y2="289.14"/>
    <line class="cls-14" x1="54.4" y1="289.14" x2="56.28" y2="289.14"/>
    <line class="cls-14" x1="54.4" y1="289.14" x2="56.28" y2="289.14"/>
    <line class="cls-14" x1="54.4" y1="289.14" x2="56.28" y2="289.14"/>
    <line class="cls-14" x1="54.4" y1="289.14" x2="56.28" y2="289.14"/>
    <line class="cls-14" x1="64.18" y1="289.14" x2="64.73" y2="289.14"/>
    <line class="cls-14" x1="64.18" y1="289.14" x2="64.73" y2="289.14"/>
    <line class="cls-14" x1="64.18" y1="289.14" x2="64.73" y2="289.14"/>
    <line class="cls-14" x1="64.18" y1="289.14" x2="64.73" y2="289.14"/>
    <line class="cls-14" x1="79.98" y1="253.53" x2="84.83" y2="253.53"/>
    <line class="cls-14" x1="80.35" y1="253.53" x2="84.83" y2="253.53"/>
    <line class="cls-14" x1="81.68" y1="253.53" x2="84.83" y2="253.53"/>
    <line class="cls-14" x1="103.44" y1="253.53" x2="109.27" y2="253.53"/>
    <line class="cls-14" x1="108.13" y1="253.53" x2="109.27" y2="253.53"/>
    <line class="cls-14" x1="108.13" y1="253.53" x2="109.27" y2="253.53"/>
    <line class="cls-14" x1="115.26" y1="253.53" x2="116.58" y2="253.53"/>
    <line class="cls-14" x1="115.26" y1="253.53" x2="116.58" y2="253.53"/>
    <line class="cls-14" x1="115.26" y1="253.53" x2="116.58" y2="253.53"/>
    <line class="cls-14" x1="226.75" y1="253.53" x2="227.43" y2="253.53"/>
    <line class="cls-14" x1="226.75" y1="253.53" x2="227.43" y2="253.53"/>
    <line class="cls-14" x1="226.75" y1="253.53" x2="227.45" y2="253.53"/>
    <line class="cls-14" x1="245.65" y1="253.53" x2="246.23" y2="253.53"/>
    <line class="cls-14" x1="245.65" y1="253.53" x2="246.91" y2="253.53"/>
    <line class="cls-14" x1="245.65" y1="253.53" x2="247.17" y2="253.53"/>
    <line class="cls-14" x1="245.65" y1="253.53" x2="247.54" y2="253.53"/>
  </g>
  <g class="cls-45">
    <polygon class="cls-32" points="71.85 285.99 99.4 285.99 99.32 285.99 99.66 285.97 100 285.9 100.33 285.78 100.63 285.6 100.9 285.38 101.13 285.12 101.32 284.83 101.45 284.51 101.53 284.17 101.56 283.83 101.56 276.64 101.53 276.29 101.45 275.95 101.32 275.64 101.13 275.34 100.9 275.08 100.63 274.86 100.33 274.69 100 274.56 99.66 274.49 99.4 274.48 71.85 274.48 72.11 274.49 71.76 274.48 71.42 274.52 71.08 274.62 70.77 274.77 70.48 274.97 70.23 275.21 70.02 275.48 69.86 275.79 69.75 276.12 69.7 276.47 69.69 276.64 69.69 283.83 69.7 283.65 69.7 284 69.75 284.34 69.86 284.67 70.02 284.98 70.23 285.26 70.48 285.5 70.77 285.7 71.08 285.85 71.42 285.94 71.76 285.99 71.85 285.99"/>
    <polygon class="cls-15" points="71.85 285.99 99.4 285.99 99.32 285.99 99.66 285.97 100 285.9 100.33 285.78 100.63 285.6 100.9 285.38 101.13 285.12 101.32 284.83 101.45 284.51 101.53 284.17 101.56 283.83 101.56 276.64 101.53 276.29 101.45 275.95 101.32 275.64 101.13 275.34 100.9 275.08 100.63 274.86 100.33 274.69 100 274.56 99.66 274.49 99.4 274.48 71.85 274.48 72.11 274.49 71.76 274.48 71.42 274.52 71.08 274.62 70.77 274.77 70.48 274.97 70.23 275.21 70.02 275.48 69.86 275.79 69.75 276.12 69.7 276.47 69.69 276.64 69.69 283.83 69.7 283.65 69.7 284 69.75 284.34 69.86 284.67 70.02 284.98 70.23 285.26 70.48 285.5 70.77 285.7 71.08 285.85 71.42 285.94 71.76 285.99 71.85 285.99"/>
  </g>
  <g class="cls-39">
    <text class="cls-7" transform="translate(73.29 282.39)"><tspan x="0" y="0">MYBPC3</tspan></text>
    <polygon class="cls-32" points="254.72 250.38 270.61 250.38 270.52 250.38 270.87 250.36 271.21 250.29 271.54 250.17 271.84 250 272.11 249.78 272.34 249.52 272.52 249.22 272.66 248.9 272.74 248.56 272.77 248.22 272.77 241.03 272.74 240.68 272.66 240.35 272.52 240.03 272.34 239.73 272.11 239.47 271.84 239.25 271.54 239.08 271.21 238.95 270.87 238.89 270.61 238.87 254.72 238.87 254.98 238.89 254.64 238.87 254.29 238.91 253.96 239.01 253.64 239.16 253.36 239.36 253.11 239.6 252.9 239.88 252.73 240.18 252.62 240.51 252.57 240.86 252.56 241.03 252.56 248.22 252.57 248.04 252.57 248.39 252.62 248.73 252.73 249.06 252.9 249.37 253.11 249.65 253.36 249.89 253.64 250.09 253.96 250.24 254.29 250.33 254.64 250.38 254.72 250.38"/>
    <polygon class="cls-15" points="254.72 250.38 270.61 250.38 270.52 250.38 270.87 250.36 271.21 250.29 271.54 250.17 271.84 250 272.11 249.78 272.34 249.52 272.52 249.22 272.66 248.9 272.74 248.56 272.77 248.22 272.77 241.03 272.74 240.68 272.66 240.35 272.52 240.03 272.34 239.73 272.11 239.47 271.84 239.25 271.54 239.08 271.21 238.95 270.87 238.89 270.61 238.87 254.72 238.87 254.98 238.89 254.64 238.87 254.29 238.91 253.96 239.01 253.64 239.16 253.36 239.36 253.11 239.6 252.9 239.88 252.73 240.18 252.62 240.51 252.57 240.86 252.56 241.03 252.56 248.22 252.57 248.04 252.57 248.39 252.62 248.73 252.73 249.06 252.9 249.37 253.11 249.65 253.36 249.89 253.64 250.09 253.96 250.24 254.29 250.33 254.64 250.38 254.72 250.38"/>
  </g>
  <g class="cls-3">
    <text class="cls-7" transform="translate(256.16 246.78)"><tspan x="0" y="0">SPI1</tspan></text>
    <rect class="cls-18" x="35.58" y="232.16" width="247.29" height="78.34"/>
  </g>
  <g class="cls-26">
    <rect class="cls-53" x="282.87" y="14.59" width="35.59" height="27.98"/>
    <rect class="cls-22" x="282.87" y="14.59" width="35.59" height="27.98"/>
    <text class="cls-8" transform="translate(295.61 31.1)"><tspan x="0" y="0">Ast</tspan></text>
  </g>
  <g class="cls-42">
    <rect class="cls-53" x="282.87" y="42.57" width="35.59" height="27.98"/>
    <rect class="cls-22" x="282.87" y="42.57" width="35.59" height="27.98"/>
    <text class="cls-8" transform="translate(292.49 59.08)"><tspan x="0" y="0">Endo</tspan></text>
  </g>
  <g class="cls-44">
    <rect class="cls-53" x="282.87" y="70.55" width="35.59" height="27.98"/>
    <rect class="cls-22" x="282.87" y="70.55" width="35.59" height="27.98"/>
    <text class="cls-8" transform="translate(294.83 87.05)"><tspan x="0" y="0">Exc</tspan></text>
  </g>
  <g class="cls-1">
    <rect class="cls-53" x="282.87" y="98.53" width="35.59" height="27.98"/>
    <rect class="cls-22" x="282.87" y="98.53" width="35.59" height="27.98"/>
    <text class="cls-8" transform="translate(295.8 115.03)"><tspan x="0" y="0">Inh</tspan></text>
  </g>
  <g class="cls-2">
    <rect class="cls-53" x="282.87" y="126.51" width="35.59" height="27.98"/>
    <rect class="cls-22" x="282.87" y="126.51" width="35.59" height="27.98"/>
    <text class="cls-8" transform="translate(295.22 143.01)"><tspan x="0" y="0">Mic</tspan></text>
  </g>
  <g class="cls-29">
    <rect class="cls-53" x="282.87" y="154.49" width="35.59" height="27.98"/>
    <rect class="cls-22" x="282.87" y="154.49" width="35.59" height="27.98"/>
    <text class="cls-8" transform="translate(294.44 170.99)"><tspan x="0" y="0">Olig</tspan></text>
  </g>
  <g class="cls-37">
    <rect class="cls-53" x="282.87" y="182.47" width="35.59" height="27.98"/>
    <rect class="cls-22" x="282.87" y="182.47" width="35.59" height="27.98"/>
    <text class="cls-8" transform="translate(294.24 198.96)"><tspan x="0" y="0">Opc</tspan></text>
  </g>
  <g class="cls-43">
    <text class="cls-8" transform="translate(290.35 273.84)"><tspan x="0" y="0">Genes</tspan></text>
  </g>
  <line class="cls-19" x1="45.64" y1="213.28" x2="45.64" y2="210.45"/>
  <line class="cls-19" x1="116.3" y1="213.28" x2="116.3" y2="210.45"/>
  <line class="cls-19" x1="186.95" y1="213.28" x2="186.95" y2="210.45"/>
  <line class="cls-19" x1="257.6" y1="213.28" x2="257.6" y2="210.45"/>
  <text class="cls-8" transform="translate(30.07 220.5)"><tspan x="0" y="0">47350000</tspan></text>
  <text class="cls-8" transform="translate(100.73 220.5)"><tspan x="0" y="0">47360000</tspan></text>
  <text class="cls-8" transform="translate(171.38 220.5)"><tspan x="0" y="0">47370000</tspan></text>
  <text class="cls-8" transform="translate(242.03 220.5)"><tspan x="0" y="0">47380000</tspan></text>
  <text class="cls-8" transform="translate(6.01 127.52) rotate(-90)"><tspan x="0" y="0">C</tspan><tspan class="cls-27" x="5.06" y="0">o</tspan><tspan class="cls-28" x="8.84" y="0">v</tspan><tspan x="12.17" y="0">e</tspan><tspan class="cls-54" x="16.06" y="0">r</tspan><tspan x="18.32" y="0">age</tspan></text>
  <text class="cls-8" transform="translate(13.57 195.33) rotate(-90)"><tspan x="0" y="0">(No</tspan><tspan class="cls-33" x="11.28" y="0">r</tspan><tspan x="13.78" y="0">m. </tspan><tspan class="cls-34" x="23.5" y="0">AT</tspan><tspan class="cls-48" x="30.78" y="0">A</tspan><tspan x="35.24" y="0">C Signal Range (0−0.16) </tspan><tspan class="cls-46" x="114.42" y="0">b</tspan><tspan x="118.18" y="0">y ReadsInTSS)</tspan></text>
  <text class="cls-6" transform="translate(35.58 6.87)"><tspan x="0" y="0">chr11:47348575−47383576</tspan></text>
  <ellipse class="cls-23" cx="241.15" cy="144.81" rx="20.02" ry="16.67"/>
  <ellipse class="cls-21" cx="243.78" cy="251.26" rx="20.02" ry="16.67"/>
</svg>